<?xml version="1.0" encoding="utf-8"?>

<!-- License Agreement at http://iconmonstr.com/license/ -->

<!DOCTYPE svg PUBLIC "-//W3C//DTD SVG 1.1//EN" "http://www.w3.org/Graphics/SVG/1.1/DTD/svg11.dtd">
<svg version="1.1" xmlns="http://www.w3.org/2000/svg" xmlns:xlink="http://www.w3.org/1999/xlink" x="0px" y="0px"
	 width="512px" height="512px" viewBox="0 0 512 512" style="enable-background:new 0 0 512 512;" xml:space="preserve">
<path id="gamepad-11-icon" d="M185.339,234.218c0,10.945-8.905,19.851-19.852,19.851c-10.945,0-19.851-8.905-19.851-19.851
	s8.905-19.851,19.851-19.851C176.434,214.367,185.339,223.272,185.339,234.218z M431.958,388.515
	c-6.335,3.129-13.938,2.111-19.226-2.574l-53.385-47.303c-9.574-8.481-17.898-17.241-41.264-17.241H193.916
	c-23.365,0-31.689,8.76-41.264,17.241L99.268,385.94c-5.287,4.686-12.891,5.703-19.225,2.574
	c-46.991-23.209-36.73-84.229,15.967-217.739c20.711-52.471,65.376-56.653,95.237-41.273c41.608,21.432,88.749,20.992,129.506,0
	c29.861-15.38,74.526-11.197,95.237,41.273C468.688,304.285,478.948,365.306,431.958,388.515z M205.339,234.218
	c0-21.974-17.877-39.851-39.852-39.851c-21.974,0-39.851,17.877-39.851,39.851s17.877,39.851,39.851,39.851
	C187.462,274.068,205.339,256.191,205.339,234.218z M272.657,194.961c0-9.16-7.423-16.583-16.583-16.583
	c-9.156,0-16.583,7.423-16.583,16.583c0,9.158,7.427,16.583,16.583,16.583C265.234,211.544,272.657,204.119,272.657,194.961z
	 M328.115,224.775c-5.077-5.078-13.312-5.078-18.393,0c-5.08,5.082-5.08,13.315,0,18.396c5.079,5.077,13.315,5.077,18.393,0
	C333.195,238.091,333.195,229.857,328.115,224.775z M356.888,251.271c-5.079-5.078-13.315-5.078-18.396,0
	c-5.077,5.077-5.077,13.313,0,18.394c5.08,5.079,13.316,5.079,18.396,0C361.966,264.585,361.966,256.349,356.888,251.271z
	 M356.888,198.771c-5.079-5.08-13.315-5.08-18.396,0c-5.077,5.077-5.077,13.313,0,18.394c5.08,5.077,13.316,5.077,18.396,0
	C361.966,212.085,361.966,203.849,356.888,198.771z M385.572,224.775c-5.08-5.078-13.315-5.078-18.394,0
	c-5.079,5.082-5.079,13.315,0,18.396c5.078,5.077,13.313,5.077,18.394,0C390.65,238.091,390.65,229.857,385.572,224.775z"/>
</svg>
